<?xml version="1.0" encoding="UTF-8"?>
<svg version="1.1" xmlns="http://www.w3.org/2000/svg" width="200" height="200">
<path d="M0 0 C2.296875 0.140625 2.296875 0.140625 5 1 C6.765625 3.546875 6.765625 3.546875 8.25 6.75 C8.75015625 7.79671875 9.2503125 8.8434375 9.765625 9.921875 C11.91168497 15.27344227 12.13364525 20.09351679 12.0625 25.8125 C12.05798828 26.50537109 12.05347656 27.19824219 12.04882812 27.91210938 C12.03713156 29.60811068 12.01919924 31.30406703 12 33 C13.27617188 32.98839844 14.55234375 32.97679687 15.8671875 32.96484375 C17.53645687 32.95546583 19.20572783 32.94636563 20.875 32.9375 C21.71675781 32.92912109 22.55851562 32.92074219 23.42578125 32.91210938 C24.23144531 32.90888672 25.03710938 32.90566406 25.8671875 32.90234375 C26.61081543 32.89710693 27.35444336 32.89187012 28.12060547 32.88647461 C30 33 30 33 32 34 C32.27075195 36.28662109 32.27075195 36.28662109 32 39 C30.18823242 40.79541016 30.18823242 40.79541016 27.66796875 42.4140625 C26.29390869 43.30786621 26.29390869 43.30786621 24.89208984 44.21972656 C23.9377002 44.8072168 22.98331055 45.39470703 22 46 C21.12682129 46.53850586 20.25364258 47.07701172 19.35400391 47.63183594 C16.68891422 49.24074018 14.005142 50.81268847 11.3125 52.375 C9.37734077 53.50736249 7.44244584 54.64017676 5.5078125 55.7734375 C4.57098633 56.3209668 3.63416016 56.86849609 2.66894531 57.43261719 C-1.00923523 59.59269028 -4.66189362 61.79377223 -8.3125 64 C-23.27013282 73 -23.27013282 73 -26 73 C-26 72.01 -26 71.02 -26 70 C-23.48046875 68.24609375 -23.48046875 68.24609375 -20.1875 66.4375 C-19.10855469 65.83808594 -18.02960938 65.23867187 -16.91796875 64.62109375 C-15.95503906 64.08613281 -14.99210937 63.55117188 -14 63 C-13.01 62.34 -12.02 61.68 -11 61 C-16.28 60.67 -21.56 60.34 -27 60 C-25.66872937 56.67182343 -24.49863014 54.07334556 -22.75 51.0625 C-21.24815733 48.07562633 -20.95165984 47.30212601 -21.5 43.875 C-23.12858919 40.75353738 -25.01793397 37.90703017 -27 35 C-27 34.34 -27 33.68 -27 33 C-20.4 33 -13.8 33 -7 33 C-7.103125 30.2775 -7.20625 27.555 -7.3125 24.75 C-7.47337604 15.25487215 -5.30452665 7.95678997 0 0 Z M-22 36 C-21.13375 37.381875 -20.2675 38.76375 -19.375 40.1875 C-16.9274855 44.61929886 -16.9274855 44.61929886 -17.5 47.625 C-18.2425 48.800625 -18.2425 48.800625 -19 50 C-19.55859326 51.26348475 -20.09965237 52.53483416 -20.625 53.8125 C-21.07875 54.864375 -21.5325 55.91625 -22 57 C-17.05 57 -12.1 57 -7 57 C-7 50.07 -7 43.14 -7 36 C-11.95 36 -16.9 36 -22 36 Z M12 36 C12 39.63 12 43.26 12 47 C16.40908655 45.69166571 20.00349255 43.97608606 23.875 41.5 C24.84179688 40.8915625 25.80859375 40.283125 26.8046875 39.65625 C27.52914062 39.1096875 28.25359375 38.563125 29 38 C29 37.34 29 36.68 29 36 C23.39 36 17.78 36 12 36 Z " fill="#FFFFFF" transform="translate(99,0)"/>
<path d="M0 0 C-0.1953125 1.8046875 -0.1953125 1.8046875 -1 4 C-3.1796875 5.6328125 -3.1796875 5.6328125 -5.875 7.125 C-6.75929687 7.62257813 -7.64359375 8.12015625 -8.5546875 8.6328125 C-9.36164063 9.08398438 -10.16859375 9.53515625 -11 10 C-11.99 10.66 -12.98 11.32 -14 12 C-9.05 12.33 -4.1 12.66 1 13 C-0.56909613 16.92274032 -2.2446738 20.38007162 -4.29296875 24.03515625 C-5.18553844 26.51561236 -4.94524851 27.55850385 -4 30 C-2.73544912 32.09818793 -1.35851692 34.08622288 0.0390625 36.09765625 C0.35617188 36.72542969 0.67328125 37.35320312 1 38 C0.67 38.99 0.34 39.98 0 41 C-6.6 40.67 -13.2 40.34 -20 40 C-19.96042843 45.22063275 -19.96042843 45.22063275 -19.90991211 50.44116211 C-19.90276055 52.29433759 -19.9497148 54.14749308 -20 56 C-21 57 -21 57 -22.76586914 57.11352539 C-23.51473389 57.10828857 -24.26359863 57.10305176 -25.03515625 57.09765625 C-25.84404297 57.09443359 -26.65292969 57.09121094 -27.48632812 57.08789062 C-28.33646484 57.07951172 -29.18660156 57.07113281 -30.0625 57.0625 C-30.91650391 57.05798828 -31.77050781 57.05347656 -32.65039062 57.04882812 C-34.76695663 57.03700373 -36.88348685 57.01906769 -39 57 C-39 51.72 -39 46.44 -39 41 C-40.27617188 41.02320313 -41.55234375 41.04640625 -42.8671875 41.0703125 C-44.5364525 41.08906829 -46.2057238 41.10726869 -47.875 41.125 C-49.13763672 41.15013672 -49.13763672 41.15013672 -50.42578125 41.17578125 C-51.23144531 41.18222656 -52.03710938 41.18867187 -52.8671875 41.1953125 C-53.61081543 41.20578613 -54.35444336 41.21625977 -55.12060547 41.22705078 C-57 41 -57 41 -59 39 C-59.03125 36.6484375 -59.03125 36.6484375 -58 34 C-55.84120626 32.29405667 -53.86691421 30.98104158 -51.5 29.625 C-50.80656494 29.21000244 -50.11312988 28.79500488 -49.39868164 28.36743164 C-47.82723776 27.42882479 -46.25148683 26.49740552 -44.67236328 25.57177734 C-41.73672222 23.84515053 -38.81873995 22.0909614 -35.90234375 20.33203125 C-31.6044304 17.74073363 -27.30121876 15.15870492 -22.9921875 12.5859375 C-19.3633015 10.41822491 -15.74150325 8.24022676 -12.1328125 6.0390625 C-11.08202515 5.40013062 -11.08202515 5.40013062 -10.01000977 4.74829102 C-8.75055249 3.98143832 -7.49308176 3.21130922 -6.23803711 2.43725586 C-2.22334671 0 -2.22334671 0 0 0 Z M-20 16 C-20 22.93 -20 29.86 -20 37 C-14.72 37 -9.44 37 -4 37 C-4.86625 35.618125 -5.7325 34.23625 -6.625 32.8125 C-9.0725145 28.38070114 -9.0725145 28.38070114 -8.5 25.375 C-8.005 24.59125 -7.51 23.8075 -7 23 C-6.01 20.69 -5.02 18.38 -4 16 C-9.28 16 -14.56 16 -20 16 Z M-48.625 31.5 C-49.33140625 31.92925781 -50.0378125 32.35851562 -50.765625 32.80078125 C-52.51281139 33.86325946 -54.25671857 34.93112671 -56 36 C-55.67 36.66 -55.34 37.32 -55 38 C-49.72 38 -44.44 38 -39 38 C-39 34.37 -39 30.74 -39 27 C-42.61561971 27 -45.60698193 29.64575642 -48.625 31.5 Z " fill="#FFFFFF" transform="translate(131,77)"/>
<path d="M0 0 C2.88554476 0.61701967 5.18922537 1.51738494 7.7578125 2.9609375 C8.81282959 3.54294922 8.81282959 3.54294922 9.88916016 4.13671875 C10.6269873 4.54535156 11.36481445 4.95398438 12.125 5.375 C29.0704491 14.54674679 46.68870529 16.52543809 65.2734375 11.203125 C70.42092064 9.54125413 75.1904577 7.46001092 80 5 C80.95519531 4.52820313 81.91039062 4.05640625 82.89453125 3.5703125 C85.27037121 2.39402251 87.63811624 1.20399715 90 0 C89.23332456 4.46418611 87.15689772 6.23237312 83.765625 9.0625 C75.06618278 15.15702449 62.85150948 22 52 22 C51.94465088 22.589021 51.88930176 23.17804199 51.83227539 23.78491211 C51.57646027 26.50251515 51.31948622 29.22000746 51.0625 31.9375 C50.97548828 32.86369141 50.88847656 33.78988281 50.79882812 34.74414062 C50.25324813 40.5030406 49.6543395 46.2524233 49 52 C46.69 52 44.38 52 42 52 C41.49089578 48.50126246 40.994394 45.00084399 40.5 41.5 C40.35691406 40.51773438 40.21382812 39.53546875 40.06640625 38.5234375 C39.28642017 32.95210838 38.839284 27.62506015 39 22 C37.948125 21.938125 36.89625 21.87625 35.8125 21.8125 C24.82619173 20.37866082 14.51012977 14.94610592 6 8 C6 7.34 6 6.68 6 6 C5.38125 5.7525 4.7625 5.505 4.125 5.25 C1.64931313 3.79371361 1.04874998 2.62187494 0 0 Z " fill="#FFFFFF" transform="translate(56,124)"/>
<path d="M0 0 C2.80178062 3.2334275 3.74124175 6.10448769 4.6875 10.25 C4.93886719 11.32765625 5.19023437 12.4053125 5.44921875 13.515625 C5.72185547 14.74539062 5.72185547 14.74539062 6 16 C6.845625 15.236875 7.69125 14.47375 8.5625 13.6875 C13.97949576 9.21148472 18.95986911 7.56897158 26 8 C22.72189965 14.68732472 19.30940197 18.44499901 12.20703125 21.0078125 C4.6617182 23.22057273 4.6617182 23.22057273 1 22 C-2.57722791 16.03795349 -2.76973246 9.83762342 -2 3 C-1.34 2.01 -0.68 1.02 0 0 Z " fill="#FFFFFF" transform="translate(149,98)"/>
<path d="M0 0 C2.85568058 2.85568058 2.70974336 5.40077865 3.0390625 9.32421875 C2.96213951 14.59344339 0.90508348 18.64237478 -2 23 C-11.21332999 21.37913639 -17.92729927 18.94493866 -23.96875 11.5859375 C-25 10 -25 10 -25 8 C-17.19931036 8.03257073 -11.95498203 9.88604049 -6 15 C-5.67 15.66 -5.34 16.32 -5 17 C-4.83564453 15.78763672 -4.83564453 15.78763672 -4.66796875 14.55078125 C-4.50941406 13.48214844 -4.35085937 12.41351563 -4.1875 11.3125 C-4.03667969 10.25675781 -3.88585937 9.20101562 -3.73046875 8.11328125 C-2.97608241 4.89806247 -1.84125013 2.71899677 0 0 Z " fill="#FFFFFF" transform="translate(55,98)"/>
<path d="M0 0 C0.66 0 1.32 0 2 0 C3.81242323 4.0188515 5.33501617 7.61110675 6 12 C6.32871094 11.54109375 6.65742188 11.0821875 6.99609375 10.609375 C10.96938234 5.48394039 14.93391235 3.17031136 21 1 C21.33 1.66 21.66 2.32 22 3 C19.24318243 11.11729617 14.41775153 14.9769692 7.18359375 19.27734375 C5 20 5 20 2.84765625 19.44140625 C0.37218287 17.510223 -0.16864433 16.01846058 -1 13 C-1.23046875 9.921875 -1.23046875 9.921875 -1.1875 6.75 C-1.18105469 5.69296875 -1.17460937 4.6359375 -1.16796875 3.546875 C-1 1 -1 1 0 0 Z " fill="#FFFFFF" transform="translate(156,85)"/>
<path d="M0 0 C0.66 0 1.32 0 2 0 C3.96277161 3.92554321 3.34430954 8.71123206 3 13 C1.6875 16.625 1.6875 16.625 0 19 C-3 20 -3 20 -5.05078125 19.25 C-11.70669683 15.57142835 -16.50213749 11.74465629 -19.375 4.5625 C-19.58125 3.716875 -19.7875 2.87125 -20 2 C-13.66109914 2.60370484 -9.77192305 4.94829962 -5.625 9.75 C-5.08875 10.4925 -4.5525 11.235 -4 12 C-3.79503906 11.30132812 -3.59007813 10.60265625 -3.37890625 9.8828125 C-3.10949219 8.97273438 -2.84007813 8.06265625 -2.5625 7.125 C-2.29566406 6.22007813 -2.02882813 5.31515625 -1.75390625 4.3828125 C-1 2 -1 2 0 0 Z " fill="#FFFFFF" transform="translate(46,85)"/>
<path d="M0 0 C2 2 2 2 2.375 5.9375 C2.2826199 8.76022533 2.19643052 9.72990804 0.5 12.0625 C-3.25846074 13.47192278 -6.07407771 12.71975242 -10 12 C-12.32734952 5.75290391 -12.32734952 5.75290391 -10.75 2.125 C-7.43244986 -1.90345374 -4.87409777 -0.95741206 0 0 Z " fill="#FFFFFF" transform="translate(106,181)"/>
<path d="M0 0 C1.85625 0.0309375 1.85625 0.0309375 3.75 0.0625 C3.37850457 2.62969977 2.9907549 3.82860747 1.10546875 5.66015625 C-4.85543117 9.68779133 -11.02014035 12.34064194 -18.25 13.0625 C-18.91 12.4025 -19.57 11.7425 -20.25 11.0625 C-16.79787556 6.02815186 -12.1189332 2.30390967 -6.265625 0.42578125 C-4.13009499 0.04088921 -2.1680275 -0.03613379 0 0 Z " fill="#FFFFFF" transform="translate(166.25,122.9375)"/>
<path d="M0 0 C0.99 0.33 1.98 0.66 3 1 C4.16796875 3.36328125 4.16796875 3.36328125 5.1875 6.3125 C5.53167969 7.27800781 5.87585938 8.24351563 6.23046875 9.23828125 C7 12 7 12 7 16 C6.34 16 5.68 16 5 16 C4.01 13.36 3.02 10.72 2 8 C0.18884044 9.81115956 0.61800552 12.61278227 0.4375 15.0625 C0.35371094 16.16722656 0.26992187 17.27195312 0.18359375 18.41015625 C0.12300781 19.26480469 0.06242187 20.11945313 0 21 C-3.86248624 17.65683964 -4.54212374 13.79016487 -6 9 C-6 13.95 -6 18.9 -6 24 C-6.99 23.67 -7.98 23.34 -9 23 C-9.05397335 20.5622037 -9.09365616 18.12560315 -9.125 15.6875 C-9.14175781 14.99720703 -9.15851563 14.30691406 -9.17578125 13.59570312 C-9.21217794 9.82864604 -9.14378864 8.21568296 -7 5 C-6.01 5 -5.02 5 -4 5 C-3.67 5.66 -3.34 6.32 -3 7 C-2.01 4.69 -1.02 2.38 0 0 Z " fill="#FFFFFF" transform="translate(111,61)"/>
<path d="M0 0 C7.43128384 -0.55046547 13.97314897 0.86800475 19.96875 5.53125 C21.625 7.125 21.625 7.125 24 10 C24 10.66 24 11.32 24 12 C16.0795375 12.49502891 10.62164399 10.63105199 4.5625 5.4375 C1.17953321 2.35906643 1.17953321 2.35906643 0 0 Z " fill="#FFFFFF" transform="translate(34,123)"/>
<path d="M0 0 C0.66 0 1.32 0 2 0 C4.35288632 4.70577263 3.75998171 11.59213716 2.2109375 16.5 C0.47725297 20.09971139 -0.59665982 21.73110655 -4 24 C-5.86224237 18.41327289 -5.9820961 12.58916245 -3.8828125 7.0546875 C-2.66741005 4.64448264 -1.40099448 2.30663734 0 0 Z " fill="#FFFFFF" transform="translate(167,66)"/>
<path d="M0 0 C3 1 3 1 4.16796875 2.6796875 C6.98680618 8.7493681 7.94139832 14.3226398 7 21 C6.34 21.99 5.68 22.98 5 24 C0.46574378 18.71003441 -1.28313617 14.81132849 -1.1875 7.8125 C-1.18105469 6.76707031 -1.17460938 5.72164063 -1.16796875 4.64453125 C-1 2 -1 2 0 0 Z " fill="#FFFFFF" transform="translate(35,66)"/>
<path d="M0 0 C-3.10586276 3.7332059 -6.43609259 4.0429935 -11.0625 4.78125 C-15.1869144 5.08838724 -19.22350116 4.80042387 -23 3 C-23.33 2.01 -23.66 1.02 -24 0 C-14.90744668 -3.89680857 -9.09255332 -3.89680857 0 0 Z " fill="#FFFFFF" transform="translate(161,141)"/>
<path d="M0 0 C0 0.66 0 1.32 0 2 C-7.64603752 5.58408009 -13.30423714 5.30746253 -21.09375 2.69140625 C-21.7228125 2.46324219 -22.351875 2.23507813 -23 2 C-23 1.01 -23 0.02 -23 -1 C-14.51460616 -3.77074084 -8.29063283 -3.15833632 0 0 Z " fill="#FFFFFF" transform="translate(68,141)"/>
<path d="M0 0 C1.875 1.0625 1.875 1.0625 3 3 C3.73512698 6.74914761 3.65582068 8.99965486 1.53515625 12.234375 C-0.22504578 14.33322054 -1.8852358 16.25656485 -4 18 C-4.99 18 -5.98 18 -7 18 C-7.33 13.71 -7.66 9.42 -8 5 C-8.99 5 -9.98 5 -11 5 C-10.1875 3.0625 -10.1875 3.0625 -9 1 C-5.72429875 -0.09190042 -3.43202271 -0.28600189 0 0 Z M-6 3 C-5.34 6.3 -4.68 9.6 -4 13 C0.10656034 10.5255362 0.10656034 10.5255362 0.8125 7.4375 C1.21080034 4.99285423 1.21080034 4.99285423 0 3 C-1.98 3 -3.96 3 -6 3 Z " fill="#FFFFFF" transform="translate(96,74)"/>
<path d="M0 0 C1.2065625 0.9590625 1.2065625 0.9590625 2.4375 1.9375 C2.1075 2.5975 1.7775 3.2575 1.4375 3.9375 C-5.58011613 6.20743506 -11.20019237 4.0323177 -17.5625 0.9375 C-17.2325 -0.0525 -16.9025 -1.0425 -16.5625 -2.0625 C-11.21282764 -4.15331081 -4.70149048 -3.1492169 0 0 Z " fill="#FFFFFF" transform="translate(143.5625,150.0625)"/>
<path d="M0 0 C0 0.99 0 1.98 0 3 C-3.85604842 6.13303934 -8.11032175 7.03690323 -13 7 C-15.46609202 6.53469962 -17.62261646 5.84199 -20 5 C-14.37717765 -1.14025999 -7.81118371 -1.50075983 0 0 Z " fill="#FFFFFF" transform="translate(78,148)"/>
<path d="M0 0 C2.0625 0.4375 2.0625 0.4375 4 1 C4 1.66 4 2.32 4 3 C3.01 3.33 2.02 3.66 1 4 C0.83197949 5.45817797 0.66562857 6.9165484 0.5 8.375 C0.4071875 9.18710938 0.314375 9.99921875 0.21875 10.8359375 C-0.03352351 12.96912825 -0.03352351 12.96912825 0 15 C0.763125 14.175 1.52625 13.35 2.3125 12.5 C5 10 5 10 8 10 C6.75023244 13.65316671 6.32901247 14.78065836 3 17 C0.3125 16.625 0.3125 16.625 -2 16 C-4.00786007 11.87860301 -4.09794019 9.43238248 -2.6875 5.1875 C-1.21808511 1.21808511 -1.21808511 1.21808511 0 0 Z " fill="#FFFFFF" transform="translate(122,56)"/>
<path d="M0 0 C0.99 0.33 1.98 0.66 3 1 C3.66 4.63 4.32 8.26 5 12 C5.66 12 6.32 12 7 12 C7.309375 11.38125 7.61875 10.7625 7.9375 10.125 C8.625 8.75 9.3125 7.375 10 6 C10.99 6.33 11.98 6.66 13 7 C12.09970429 8.34444159 11.17911978 9.67531438 10.25 11 C9.73953125 11.7425 9.2290625 12.485 8.703125 13.25 C7.86007813 14.11625 7.86007813 14.11625 7 15 C5.68 15 4.36 15 3 15 C2.49363393 13.25183142 1.99515381 11.50137737 1.5 9.75 C1.2215625 8.77546875 0.943125 7.8009375 0.65625 6.796875 C0 4 0 4 0 0 Z " fill="#FFFFFF" transform="translate(75,83)"/>
<path d="M0 0 C8.95859592 2.18222208 8.95859592 2.18222208 11.5625 6.1875 C12.036875 7.115625 12.51125 8.04375 13 9 C10 10 10 10 7.0625 8.875 C3.84886729 6.90746977 2.07955453 5.11933179 0 2 C0 1.34 0 0.68 0 0 Z " fill="#FFFFFF" transform="translate(118,152)"/>
<path d="M0 0 C0.33 0.99 0.66 1.98 1 3 C-6.11389522 9.70387244 -6.11389522 9.70387244 -11 10 C-9.64908476 5.57882285 -7.8349855 3.556657 -4 1 C-1.6875 0.25 -1.6875 0.25 0 0 Z " fill="#FFFFFF" transform="translate(85,152)"/>
<path d="" fill="#FFFFFF" transform="translate(0,0)"/>
</svg>
