<?xml version="1.0" encoding="UTF-8"?>
<svg version="1.1" xmlns="http://www.w3.org/2000/svg" width="200" height="200">
<path d="M0 0 C2.296875 0.140625 2.296875 0.140625 5 1 C6.765625 3.546875 6.765625 3.546875 8.25 6.75 C8.75015625 7.79671875 9.2503125 8.8434375 9.765625 9.921875 C11.91168497 15.27344227 12.13364525 20.09351679 12.0625 25.8125 C12.05798828 26.50537109 12.05347656 27.19824219 12.04882812 27.91210938 C12.03713156 29.60811068 12.01919924 31.30406703 12 33 C13.27617188 32.98839844 14.55234375 32.97679687 15.8671875 32.96484375 C17.53645687 32.95546583 19.20572783 32.94636563 20.875 32.9375 C21.71675781 32.92912109 22.55851562 32.92074219 23.42578125 32.91210938 C24.23144531 32.90888672 25.03710938 32.90566406 25.8671875 32.90234375 C26.61081543 32.89710693 27.35444336 32.89187012 28.12060547 32.88647461 C30 33 30 33 32 34 C32.27075195 36.28662109 32.27075195 36.28662109 32 39 C30.18823242 40.79541016 30.18823242 40.79541016 27.66796875 42.4140625 C26.29390869 43.30786621 26.29390869 43.30786621 24.89208984 44.21972656 C23.9377002 44.8072168 22.98331055 45.39470703 22 46 C21.12682129 46.53850586 20.25364258 47.07701172 19.35400391 47.63183594 C16.68891422 49.24074018 14.005142 50.81268847 11.3125 52.375 C9.37734077 53.50736249 7.44244584 54.64017676 5.5078125 55.7734375 C4.57098633 56.3209668 3.63416016 56.86849609 2.66894531 57.43261719 C-1.00923523 59.59269028 -4.66189362 61.79377223 -8.3125 64 C-23.27013282 73 -23.27013282 73 -26 73 C-26 72.01 -26 71.02 -26 70 C-23.48046875 68.24609375 -23.48046875 68.24609375 -20.1875 66.4375 C-19.10855469 65.83808594 -18.02960938 65.23867187 -16.91796875 64.62109375 C-15.95503906 64.08613281 -14.99210937 63.55117188 -14 63 C-13.01 62.34 -12.02 61.68 -11 61 C-16.28 60.67 -21.56 60.34 -27 60 C-25.66872937 56.67182343 -24.49863014 54.07334556 -22.75 51.0625 C-21.24815733 48.07562633 -20.95165984 47.30212601 -21.5 43.875 C-23.12858919 40.75353738 -25.01793397 37.90703017 -27 35 C-27 34.34 -27 33.68 -27 33 C-20.4 33 -13.8 33 -7 33 C-7.103125 30.2775 -7.20625 27.555 -7.3125 24.75 C-7.47337604 15.25487215 -5.30452665 7.95678997 0 0 Z M-22 36 C-21.13375 37.381875 -20.2675 38.76375 -19.375 40.1875 C-16.9274855 44.61929886 -16.9274855 44.61929886 -17.5 47.625 C-18.2425 48.800625 -18.2425 48.800625 -19 50 C-19.55859326 51.26348475 -20.09965237 52.53483416 -20.625 53.8125 C-21.07875 54.864375 -21.5325 55.91625 -22 57 C-17.05 57 -12.1 57 -7 57 C-7 50.07 -7 43.14 -7 36 C-11.95 36 -16.9 36 -22 36 Z M12 36 C12 39.63 12 43.26 12 47 C16.40908655 45.69166571 20.00349255 43.97608606 23.875 41.5 C24.84179688 40.8915625 25.80859375 40.283125 26.8046875 39.65625 C27.52914062 39.1096875 28.25359375 38.563125 29 38 C29 37.34 29 36.68 29 36 C23.39 36 17.78 36 12 36 Z " fill="#0A0A0A" transform="translate(99,0)"/>
<path d="M0 0 C-0.1953125 1.8046875 -0.1953125 1.8046875 -1 4 C-3.1796875 5.6328125 -3.1796875 5.6328125 -5.875 7.125 C-6.75929687 7.62257813 -7.64359375 8.12015625 -8.5546875 8.6328125 C-9.36164063 9.08398438 -10.16859375 9.53515625 -11 10 C-11.99 10.66 -12.98 11.32 -14 12 C-9.05 12.33 -4.1 12.66 1 13 C-0.56909613 16.92274032 -2.2446738 20.38007162 -4.29296875 24.03515625 C-5.18553844 26.51561236 -4.94524851 27.55850385 -4 30 C-2.73544912 32.09818793 -1.35851692 34.08622288 0.0390625 36.09765625 C0.35617188 36.72542969 0.67328125 37.35320312 1 38 C0.67 38.99 0.34 39.98 0 41 C-6.6 40.67 -13.2 40.34 -20 40 C-19.96042843 45.22063275 -19.96042843 45.22063275 -19.90991211 50.44116211 C-19.90276055 52.29433759 -19.9497148 54.14749308 -20 56 C-21 57 -21 57 -22.76586914 57.11352539 C-23.51473389 57.10828857 -24.26359863 57.10305176 -25.03515625 57.09765625 C-25.84404297 57.09443359 -26.65292969 57.09121094 -27.48632812 57.08789062 C-28.33646484 57.07951172 -29.18660156 57.07113281 -30.0625 57.0625 C-30.91650391 57.05798828 -31.77050781 57.05347656 -32.65039062 57.04882812 C-34.76695663 57.03700373 -36.88348685 57.01906769 -39 57 C-39 51.72 -39 46.44 -39 41 C-40.27617188 41.02320313 -41.55234375 41.04640625 -42.8671875 41.0703125 C-44.5364525 41.08906829 -46.2057238 41.10726869 -47.875 41.125 C-49.13763672 41.15013672 -49.13763672 41.15013672 -50.42578125 41.17578125 C-51.23144531 41.18222656 -52.03710938 41.18867187 -52.8671875 41.1953125 C-53.61081543 41.20578613 -54.35444336 41.21625977 -55.12060547 41.22705078 C-57 41 -57 41 -59 39 C-59.03125 36.6484375 -59.03125 36.6484375 -58 34 C-55.84120626 32.29405667 -53.86691421 30.98104158 -51.5 29.625 C-50.80656494 29.21000244 -50.11312988 28.79500488 -49.39868164 28.36743164 C-47.82723776 27.42882479 -46.25148683 26.49740552 -44.67236328 25.57177734 C-41.73672222 23.84515053 -38.81873995 22.0909614 -35.90234375 20.33203125 C-31.6044304 17.74073363 -27.30121876 15.15870492 -22.9921875 12.5859375 C-19.3633015 10.41822491 -15.74150325 8.24022676 -12.1328125 6.0390625 C-11.08202515 5.40013062 -11.08202515 5.40013062 -10.01000977 4.74829102 C-8.75055249 3.98143832 -7.49308176 3.21130922 -6.23803711 2.43725586 C-2.22334671 0 -2.22334671 0 0 0 Z M-20 16 C-20 22.93 -20 29.86 -20 37 C-14.72 37 -9.44 37 -4 37 C-4.86625 35.618125 -5.7325 34.23625 -6.625 32.8125 C-9.0725145 28.38070114 -9.0725145 28.38070114 -8.5 25.375 C-8.005 24.59125 -7.51 23.8075 -7 23 C-6.01 20.69 -5.02 18.38 -4 16 C-9.28 16 -14.56 16 -20 16 Z M-48.625 31.5 C-49.33140625 31.92925781 -50.0378125 32.35851562 -50.765625 32.80078125 C-52.51281139 33.86325946 -54.25671857 34.93112671 -56 36 C-55.67 36.66 -55.34 37.32 -55 38 C-49.72 38 -44.44 38 -39 38 C-39 34.37 -39 30.74 -39 27 C-42.61561971 27 -45.60698193 29.64575642 -48.625 31.5 Z " fill="#070707" transform="translate(131,77)"/>
<path d="M0 0 C2.88554476 0.61701967 5.18922537 1.51738494 7.7578125 2.9609375 C8.81282959 3.54294922 8.81282959 3.54294922 9.88916016 4.13671875 C10.6269873 4.54535156 11.36481445 4.95398438 12.125 5.375 C29.0704491 14.54674679 46.68870529 16.52543809 65.2734375 11.203125 C70.42092064 9.54125413 75.1904577 7.46001092 80 5 C80.95519531 4.52820313 81.91039062 4.05640625 82.89453125 3.5703125 C85.27037121 2.39402251 87.63811624 1.20399715 90 0 C89.23332456 4.46418611 87.15689772 6.23237312 83.765625 9.0625 C75.06618278 15.15702449 62.85150948 22 52 22 C51.94465088 22.589021 51.88930176 23.17804199 51.83227539 23.78491211 C51.57646027 26.50251515 51.31948622 29.22000746 51.0625 31.9375 C50.97548828 32.86369141 50.88847656 33.78988281 50.79882812 34.74414062 C50.25324813 40.5030406 49.6543395 46.2524233 49 52 C46.69 52 44.38 52 42 52 C41.49089578 48.50126246 40.994394 45.00084399 40.5 41.5 C40.35691406 40.51773438 40.21382812 39.53546875 40.06640625 38.5234375 C39.28642017 32.95210838 38.839284 27.62506015 39 22 C37.948125 21.938125 36.89625 21.87625 35.8125 21.8125 C24.82619173 20.37866082 14.51012977 14.94610592 6 8 C6 7.34 6 6.68 6 6 C5.38125 5.7525 4.7625 5.505 4.125 5.25 C1.64931313 3.79371361 1.04874998 2.62187494 0 0 Z " fill="#111111" transform="translate(56,124)"/>
<path d="M0 0 C-0.1953125 1.8046875 -0.1953125 1.8046875 -1 4 C-3.1796875 5.6328125 -3.1796875 5.6328125 -5.875 7.125 C-6.75929688 7.62257813 -7.64359375 8.12015625 -8.5546875 8.6328125 C-9.36164063 9.08398438 -10.16859375 9.53515625 -11 10 C-11.99 10.66 -12.98 11.32 -14 12 C-9.05 12.33 -4.1 12.66 1 13 C-0.56909613 16.92274032 -2.2446738 20.38007162 -4.29296875 24.03515625 C-5.18553844 26.51561236 -4.94524851 27.55850385 -4 30 C-2.73544912 32.09818793 -1.35851692 34.08622288 0.0390625 36.09765625 C0.35617188 36.72542969 0.67328125 37.35320312 1 38 C0.67 38.99 0.34 39.98 0 41 C-6.6 40.67 -13.2 40.34 -20 40 C-20 45.28 -20 50.56 -20 56 C-20.33 56 -20.66 56 -21 56 C-21 43.79 -21 31.58 -21 19 C-22.65 19 -24.3 19 -26 19 C-25.505 17.515 -25.505 17.515 -25 16 C-24.01 16 -23.02 16 -22 16 C-22 15.34 -22 14.68 -22 14 C-22.66 13.67 -23.32 13.34 -24 13 C-23.51120361 12.71278076 -23.02240723 12.42556152 -22.51879883 12.12963867 C-20.28322788 10.81582711 -18.04786236 9.50166642 -15.8125 8.1875 C-15.04357422 7.73568359 -14.27464844 7.28386719 -13.48242188 6.81835938 C-12.73154297 6.37685547 -11.98066406 5.93535156 -11.20703125 5.48046875 C-10.11382568 4.83924072 -10.11382568 4.83924072 -8.99853516 4.18505859 C-7.34388531 3.20391147 -5.70659074 2.19356192 -4.07421875 1.17578125 C-2 0 -2 0 0 0 Z M-20 16 C-20 22.93 -20 29.86 -20 37 C-14.72 37 -9.44 37 -4 37 C-4.86625 35.618125 -5.7325 34.23625 -6.625 32.8125 C-9.0725145 28.38070114 -9.0725145 28.38070114 -8.5 25.375 C-8.005 24.59125 -7.51 23.8075 -7 23 C-6.01 20.69 -5.02 18.38 -4 16 C-9.28 16 -14.56 16 -20 16 Z " fill="#1A1A1A" transform="translate(131,77)"/>
<path d="M0 0 C6.6 0 13.2 0 20 0 C18.68 0.33 17.36 0.66 16 1 C16 1.66 16 2.32 16 3 C12.7 3.33 9.4 3.66 6 4 C6.86625 5.216875 7.7325 6.43375 8.625 7.6875 C11.07219361 11.62098352 11.07219361 11.62098352 10.5 14.625 C10.005 15.40875 9.51 16.1925 9 17 C7.99011138 18.99502506 6.98899606 20.99453577 6 23 C7.77117187 23.07347656 7.77117187 23.07347656 9.578125 23.1484375 C11.13543937 23.22348879 12.69272991 23.29903561 14.25 23.375 C15.02730469 23.4059375 15.80460937 23.436875 16.60546875 23.46875 C23.72431144 23.83381886 23.72431144 23.83381886 27 26 C3.8496732 40 3.8496732 40 1 40 C1 39.01 1 38.02 1 37 C3.51953125 35.24609375 3.51953125 35.24609375 6.8125 33.4375 C7.89144531 32.83808594 8.97039062 32.23867187 10.08203125 31.62109375 C11.04496094 31.08613281 12.00789063 30.55117188 13 30 C13.99 29.34 14.98 28.68 16 28 C10.72 27.67 5.44 27.34 0 27 C1.33127063 23.67182343 2.50136986 21.07334556 4.25 18.0625 C5.75184267 15.07562633 6.04834016 14.30212601 5.5 10.875 C3.87141081 7.75353738 1.98206603 4.90703017 0 2 C0 1.34 0 0.68 0 0 Z " fill="#3B3B3B" transform="translate(72,33)"/>
<path d="M0 0 C2.80178062 3.2334275 3.74124175 6.10448769 4.6875 10.25 C4.93886719 11.32765625 5.19023437 12.4053125 5.44921875 13.515625 C5.72185547 14.74539062 5.72185547 14.74539062 6 16 C6.845625 15.236875 7.69125 14.47375 8.5625 13.6875 C13.97949576 9.21148472 18.95986911 7.56897158 26 8 C22.72189965 14.68732472 19.30940197 18.44499901 12.20703125 21.0078125 C4.6617182 23.22057273 4.6617182 23.22057273 1 22 C-2.57722791 16.03795349 -2.76973246 9.83762342 -2 3 C-1.34 2.01 -0.68 1.02 0 0 Z " fill="#202020" transform="translate(149,98)"/>
<path d="M0 0 C2.85568058 2.85568058 2.70974336 5.40077865 3.0390625 9.32421875 C2.96213951 14.59344339 0.90508348 18.64237478 -2 23 C-11.21332999 21.37913639 -17.92729927 18.94493866 -23.96875 11.5859375 C-25 10 -25 10 -25 8 C-17.19931036 8.03257073 -11.95498203 9.88604049 -6 15 C-5.67 15.66 -5.34 16.32 -5 17 C-4.83564453 15.78763672 -4.83564453 15.78763672 -4.66796875 14.55078125 C-4.50941406 13.48214844 -4.35085937 12.41351563 -4.1875 11.3125 C-4.03667969 10.25675781 -3.88585937 9.20101562 -3.73046875 8.11328125 C-2.97608241 4.89806247 -1.84125013 2.71899677 0 0 Z " fill="#1E1E1E" transform="translate(55,98)"/>
<path d="M0 0 C0.66 0 1.32 0 2 0 C3.81242323 4.0188515 5.33501617 7.61110675 6 12 C6.32871094 11.54109375 6.65742188 11.0821875 6.99609375 10.609375 C10.96938234 5.48394039 14.93391235 3.17031136 21 1 C21.33 1.66 21.66 2.32 22 3 C19.24318243 11.11729617 14.41775153 14.9769692 7.18359375 19.27734375 C5 20 5 20 2.84765625 19.44140625 C0.37218287 17.510223 -0.16864433 16.01846058 -1 13 C-1.23046875 9.921875 -1.23046875 9.921875 -1.1875 6.75 C-1.18105469 5.69296875 -1.17460937 4.6359375 -1.16796875 3.546875 C-1 1 -1 1 0 0 Z " fill="#171717" transform="translate(156,85)"/>
<path d="M0 0 C0.66 0 1.32 0 2 0 C3.96277161 3.92554321 3.34430954 8.71123206 3 13 C1.6875 16.625 1.6875 16.625 0 19 C-3 20 -3 20 -5.05078125 19.25 C-11.70669683 15.57142835 -16.50213749 11.74465629 -19.375 4.5625 C-19.58125 3.716875 -19.7875 2.87125 -20 2 C-13.66109914 2.60370484 -9.77192305 4.94829962 -5.625 9.75 C-5.08875 10.4925 -4.5525 11.235 -4 12 C-3.79503906 11.30132812 -3.59007813 10.60265625 -3.37890625 9.8828125 C-3.10949219 8.97273438 -2.84007813 8.06265625 -2.5625 7.125 C-2.29566406 6.22007813 -2.02882813 5.31515625 -1.75390625 4.3828125 C-1 2 -1 2 0 0 Z " fill="#202020" transform="translate(46,85)"/>
<path d="M0 0 C0.33 0.99 0.66 1.98 1 3 C-4.19163074 8.42236988 -9.69972313 12.18342872 -16.375 15.5 C-17.4278418 16.0249707 -17.4278418 16.0249707 -18.50195312 16.56054688 C-21.49828886 17.99936703 -23.63621258 19 -27 19 C-29.1385485 16.8614515 -29.42655063 15.86724686 -30 13 C-29.03320312 12.69707031 -28.06640625 12.39414063 -27.0703125 12.08203125 C-17.45904898 9.01186959 -8.56933918 5.42724815 0 0 Z " fill="#2D2D2D" transform="translate(145,124)"/>
<path d="M0 0 C2 2 2 2 2.375 5.9375 C2.2826199 8.76022533 2.19643052 9.72990804 0.5 12.0625 C-3.25846074 13.47192278 -6.07407771 12.71975242 -10 12 C-12.32734952 5.75290391 -12.32734952 5.75290391 -10.75 2.125 C-7.43244986 -1.90345374 -4.87409777 -0.95741206 0 0 Z " fill="#1C1C1C" transform="translate(106,181)"/>
<path d="M0 0 C1.85625 0.0309375 1.85625 0.0309375 3.75 0.0625 C3.37850457 2.62969977 2.9907549 3.82860747 1.10546875 5.66015625 C-4.85543117 9.68779133 -11.02014035 12.34064194 -18.25 13.0625 C-18.91 12.4025 -19.57 11.7425 -20.25 11.0625 C-16.79787556 6.02815186 -12.1189332 2.30390967 -6.265625 0.42578125 C-4.13009499 0.04088921 -2.1680275 -0.03613379 0 0 Z " fill="#222222" transform="translate(166.25,122.9375)"/>
<path d="M0 0 C-0.1953125 1.8046875 -0.1953125 1.8046875 -1 4 C-3.1796875 5.6328125 -3.1796875 5.6328125 -5.875 7.125 C-6.75929688 7.62257813 -7.64359375 8.12015625 -8.5546875 8.6328125 C-9.36164063 9.08398438 -10.16859375 9.53515625 -11 10 C-11.99 10.66 -12.98 11.32 -14 12 C-14.99 12 -15.98 12 -17 12 C-17 12.66 -17 13.32 -17 14 C-12.71 14 -8.42 14 -4 14 C-4 14.66 -4 15.32 -4 16 C-9.28 16 -14.56 16 -20 16 C-20 22.93 -20 29.86 -20 37 C-20.33 37 -20.66 37 -21 37 C-21 31.06 -21 25.12 -21 19 C-22.65 19 -24.3 19 -26 19 C-25.505 17.515 -25.505 17.515 -25 16 C-24.01 16 -23.02 16 -22 16 C-22 15.34 -22 14.68 -22 14 C-22.66 13.67 -23.32 13.34 -24 13 C-23.51120361 12.71278076 -23.02240723 12.42556152 -22.51879883 12.12963867 C-20.28322788 10.81582711 -18.04786236 9.50166642 -15.8125 8.1875 C-15.04357422 7.73568359 -14.27464844 7.28386719 -13.48242188 6.81835938 C-12.73154297 6.37685547 -11.98066406 5.93535156 -11.20703125 5.48046875 C-10.11382568 4.83924072 -10.11382568 4.83924072 -8.99853516 4.18505859 C-7.34388531 3.20391147 -5.70659074 2.19356192 -4.07421875 1.17578125 C-2 0 -2 0 0 0 Z " fill="#262626" transform="translate(131,77)"/>
<path d="M0 0 C0.99 0.33 1.98 0.66 3 1 C4.16796875 3.36328125 4.16796875 3.36328125 5.1875 6.3125 C5.53167969 7.27800781 5.87585938 8.24351563 6.23046875 9.23828125 C7 12 7 12 7 16 C6.34 16 5.68 16 5 16 C4.01 13.36 3.02 10.72 2 8 C0.18884044 9.81115956 0.61800552 12.61278227 0.4375 15.0625 C0.35371094 16.16722656 0.26992187 17.27195312 0.18359375 18.41015625 C0.12300781 19.26480469 0.06242187 20.11945313 0 21 C-3.86248624 17.65683964 -4.54212374 13.79016487 -6 9 C-6 13.95 -6 18.9 -6 24 C-6.99 23.67 -7.98 23.34 -9 23 C-9.05397335 20.5622037 -9.09365616 18.12560315 -9.125 15.6875 C-9.14175781 14.99720703 -9.15851563 14.30691406 -9.17578125 13.59570312 C-9.21217794 9.82864604 -9.14378864 8.21568296 -7 5 C-6.01 5 -5.02 5 -4 5 C-3.67 5.66 -3.34 6.32 -3 7 C-2.01 4.69 -1.02 2.38 0 0 Z " fill="#444444" transform="translate(111,61)"/>
<path d="M0 0 C7.43128384 -0.55046547 13.97314897 0.86800475 19.96875 5.53125 C21.625 7.125 21.625 7.125 24 10 C24 10.66 24 11.32 24 12 C16.0795375 12.49502891 10.62164399 10.63105199 4.5625 5.4375 C1.17953321 2.35906643 1.17953321 2.35906643 0 0 Z " fill="#1D1D1D" transform="translate(34,123)"/>
<path d="M0 0 C2.92496046 0.62491857 5.28115751 1.5570095 7.8984375 2.99609375 C8.62546875 3.38990234 9.3525 3.78371094 10.1015625 4.18945312 C11.60953641 5.01728416 13.11735062 5.8454062 14.625 6.67382812 C18.67908859 8.86919589 22.54668569 10.70641822 27 12 C26.814375 12.598125 26.62875 13.19625 26.4375 13.8125 C25.77906313 16.16408762 25.77906313 16.16408762 27 19 C19.02480149 16.8732804 12.46599031 13.15309888 6 8 C6 7.34 6 6.68 6 6 C5.38125 5.7525 4.7625 5.505 4.125 5.25 C1.64931313 3.79371361 1.04874998 2.62187494 0 0 Z " fill="#212121" transform="translate(56,124)"/>
<path d="M0 0 C0.66 0 1.32 0 2 0 C4.35288632 4.70577263 3.75998171 11.59213716 2.2109375 16.5 C0.47725297 20.09971139 -0.59665982 21.73110655 -4 24 C-5.86224237 18.41327289 -5.9820961 12.58916245 -3.8828125 7.0546875 C-2.66741005 4.64448264 -1.40099448 2.30663734 0 0 Z " fill="#181818" transform="translate(167,66)"/>
<path d="M0 0 C3 1 3 1 4.16796875 2.6796875 C6.98680618 8.7493681 7.94139832 14.3226398 7 21 C6.34 21.99 5.68 22.98 5 24 C0.46574378 18.71003441 -1.28313617 14.81132849 -1.1875 7.8125 C-1.18105469 6.76707031 -1.17460938 5.72164063 -1.16796875 4.64453125 C-1 2 -1 2 0 0 Z " fill="#070707" transform="translate(35,66)"/>
<path d="M0 0 C-3.10586276 3.7332059 -6.43609259 4.0429935 -11.0625 4.78125 C-15.1869144 5.08838724 -19.22350116 4.80042387 -23 3 C-23.33 2.01 -23.66 1.02 -24 0 C-14.90744668 -3.89680857 -9.09255332 -3.89680857 0 0 Z " fill="#232323" transform="translate(161,141)"/>
<path d="M0 0 C-0.33 0.99 -0.66 1.98 -1 3 C-1.66 3 -2.32 3 -3 3 C-3.09152344 3.62003906 -3.18304688 4.24007812 -3.27734375 4.87890625 C-4 7 -4 7 -5.56640625 8.08984375 C-6.22511719 8.36957031 -6.88382813 8.64929688 -7.5625 8.9375 C-14.77193012 12.20765697 -14.77193012 12.20765697 -21 17 C-19.35 17.33 -17.7 17.66 -16 18 C-16 18.33 -16 18.66 -16 19 C-12.37 19.33 -8.74 19.66 -5 20 C-5 20.33 -5 20.66 -5 21 C-7.95857409 21.05379226 -10.91617721 21.09357093 -13.875 21.125 C-15.13763672 21.15013672 -15.13763672 21.15013672 -16.42578125 21.17578125 C-17.63427734 21.18544922 -17.63427734 21.18544922 -18.8671875 21.1953125 C-19.61081543 21.20578613 -20.35444336 21.21625977 -21.12060547 21.22705078 C-23 21 -23 21 -25 19 C-25.10546875 16.69140625 -25.10546875 16.69140625 -24 14 C-21.63572994 11.97734726 -19.00610352 10.48113284 -16.3125 8.9375 C-14.8914961 8.09317284 -13.47091671 7.24813079 -12.05078125 6.40234375 C-11.3645166 6.00128418 -10.67825195 5.60022461 -9.97119141 5.18701172 C-8.13385777 4.08060645 -6.36969991 2.90991048 -4.60546875 1.69140625 C-2 0 -2 0 0 0 Z " fill="#393939" transform="translate(97,97)"/>
<path d="M0 0 C0 0.66 0 1.32 0 2 C-7.64603752 5.58408009 -13.30423714 5.30746253 -21.09375 2.69140625 C-21.7228125 2.46324219 -22.351875 2.23507813 -23 2 C-23 1.01 -23 0.02 -23 -1 C-14.51460616 -3.77074084 -8.29063283 -3.15833632 0 0 Z " fill="#202020" transform="translate(68,141)"/>
<path d="M0 0 C4.4705323 5.28335635 5.57256077 11.26783213 6 18 C5.0625 21 5.0625 21 4 23 C1 22 1 22 -0.6875 19.1875 C-2.71462282 14.05567854 -2.61030261 8.42138942 -2 3 C-1.34 2.01 -0.68 1.02 0 0 Z " fill="#1C1C1C" transform="translate(149,98)"/>
<path d="M0 0 C1.875 1.0625 1.875 1.0625 3 3 C3.73512698 6.74914761 3.65582068 8.99965486 1.53515625 12.234375 C-0.22504578 14.33322054 -1.8852358 16.25656485 -4 18 C-4.99 18 -5.98 18 -7 18 C-7.33 13.71 -7.66 9.42 -8 5 C-8.99 5 -9.98 5 -11 5 C-10.1875 3.0625 -10.1875 3.0625 -9 1 C-5.72429875 -0.09190042 -3.43202271 -0.28600189 0 0 Z M-6 3 C-5.34 6.3 -4.68 9.6 -4 13 C0.10656034 10.5255362 0.10656034 10.5255362 0.8125 7.4375 C1.21080034 4.99285423 1.21080034 4.99285423 0 3 C-1.98 3 -3.96 3 -6 3 Z " fill="#393939" transform="translate(96,74)"/>
<path d="M0 0 C2.97 0.33 5.94 0.66 9 1 C6.36566278 3.63433722 4.35973031 5.10101545 1.18359375 6.91796875 C0.25482422 7.44970703 -0.67394531 7.98144531 -1.63085938 8.52929688 C-2.59830078 9.07650391 -3.56574219 9.62371094 -4.5625 10.1875 C-5.53380859 10.74630859 -6.50511719 11.30511719 -7.50585938 11.88085938 C-14.74327495 16 -14.74327495 16 -17 16 C-17 15.01 -17 14.02 -17 13 C-14.48046875 11.24609375 -14.48046875 11.24609375 -11.1875 9.4375 C-9.56908203 8.53837891 -9.56908203 8.53837891 -7.91796875 7.62109375 C-6.47357422 6.81865234 -6.47357422 6.81865234 -5 6 C-4.01 5.34 -3.02 4.68 -2 4 C-7.28 3.67 -12.56 3.34 -18 3 C-17.67 2.34 -17.34 1.68 -17 1 C-11.39 1 -5.78 1 0 1 C0 0.67 0 0.34 0 0 Z " fill="#454545" transform="translate(90,57)"/>
<path d="M0 0 C2.85568058 2.85568058 2.70974336 5.40077865 3.0390625 9.32421875 C2.96213951 14.59344339 0.90508348 18.64237478 -2 23 C-2.66 22.67 -3.32 22.34 -4 22 C-4.42691034 13.55666209 -4.63421641 7.24096313 0 0 Z " fill="#202020" transform="translate(55,98)"/>
<path d="M0 0 C1.2065625 0.9590625 1.2065625 0.9590625 2.4375 1.9375 C2.1075 2.5975 1.7775 3.2575 1.4375 3.9375 C-5.58011613 6.20743506 -11.20019237 4.0323177 -17.5625 0.9375 C-17.2325 -0.0525 -16.9025 -1.0425 -16.5625 -2.0625 C-11.21282764 -4.15331081 -4.70149048 -3.1492169 0 0 Z " fill="#242424" transform="translate(143.5625,150.0625)"/>
<path d="M0 0 C0 0.99 0 1.98 0 3 C-3.85604842 6.13303934 -8.11032175 7.03690323 -13 7 C-15.46609202 6.53469962 -17.62261646 5.84199 -20 5 C-14.37717765 -1.14025999 -7.81118371 -1.50075983 0 0 Z " fill="#282828" transform="translate(78,148)"/>
<path d="M0 0 C0.33 0 0.66 0 1 0 C1.28125 2.27734375 1.28125 2.27734375 1 5 C-0.90625 6.87890625 -0.90625 6.87890625 -3.5 8.5625 C-4.40492187 9.15289062 -5.30984375 9.74328125 -6.2421875 10.3515625 C-9.75319446 12.45020972 -13.28843002 14.28168057 -17 16 C-17.99 15.34 -18.98 14.68 -20 14 C-20.29296875 11.1796875 -20.29296875 11.1796875 -20.1875 7.875 C-20.16042969 6.77929688 -20.13335937 5.68359375 -20.10546875 4.5546875 C-20.07066406 3.71164063 -20.03585938 2.86859375 -20 2 C-19.67 2 -19.34 2 -19 2 C-19 5.63 -19 9.26 -19 13 C-17.53626953 12.15115234 -17.53626953 12.15115234 -16.04296875 11.28515625 C-14.75789475 10.54412818 -13.47273396 9.80325061 -12.1875 9.0625 C-11.54490234 8.68931641 -10.90230469 8.31613281 -10.24023438 7.93164062 C-7.51683576 6.36533365 -4.98891878 4.99630626 -2 4 C-2 3.34 -2 2.68 -2 2 C-1.34 2 -0.68 2 0 2 C0 1.34 0 0.68 0 0 Z " fill="#3B3B3B" transform="translate(130,34)"/>
<path d="M0 0 C5.94 0.33 11.88 0.66 18 1 C16.48134703 4.79663242 14.92114404 8.08660792 12.9375 11.625 C11.36024741 14.4401452 10.02152616 16.93542152 9 20 C7.3304099 16.31805626 6.76363466 14.67934373 8.1171875 10.7890625 C9.74479167 7.859375 11.37239583 4.9296875 13 2 C8.71 2 4.42 2 0 2 C0 1.34 0 0.68 0 0 Z " fill="#454545" transform="translate(114,89)"/>
<path d="M0 0 C2.0625 0.4375 2.0625 0.4375 4 1 C4 1.66 4 2.32 4 3 C3.01 3.33 2.02 3.66 1 4 C0.83197949 5.45817797 0.66562857 6.9165484 0.5 8.375 C0.4071875 9.18710938 0.314375 9.99921875 0.21875 10.8359375 C-0.03352351 12.96912825 -0.03352351 12.96912825 0 15 C0.763125 14.175 1.52625 13.35 2.3125 12.5 C5 10 5 10 8 10 C6.75023244 13.65316671 6.32901247 14.78065836 3 17 C0.3125 16.625 0.3125 16.625 -2 16 C-4.00786007 11.87860301 -4.09794019 9.43238248 -2.6875 5.1875 C-1.21808511 1.21808511 -1.21808511 1.21808511 0 0 Z " fill="#3F3F3F" transform="translate(122,56)"/>
<path d="M0 0 C0.99 0.33 1.98 0.66 3 1 C3.66 4.63 4.32 8.26 5 12 C5.66 12 6.32 12 7 12 C7.309375 11.38125 7.61875 10.7625 7.9375 10.125 C8.625 8.75 9.3125 7.375 10 6 C10.99 6.33 11.98 6.66 13 7 C12.09970429 8.34444159 11.17911978 9.67531438 10.25 11 C9.73953125 11.7425 9.2290625 12.485 8.703125 13.25 C7.86007813 14.11625 7.86007813 14.11625 7 15 C5.68 15 4.36 15 3 15 C2.49363393 13.25183142 1.99515381 11.50137737 1.5 9.75 C1.2215625 8.77546875 0.943125 7.8009375 0.65625 6.796875 C0 4 0 4 0 0 Z " fill="#3C3C3C" transform="translate(75,83)"/>
<path d="M0 0 C3.4588014 0.31443649 5.5109277 0.60602509 8.25 2.8125 C9.85625237 4.82031546 10.99038395 6.64422923 12 9 C9.54271406 9.9101059 8.04178765 10.00713448 5.4375 9.5625 C1.8098016 7.23705231 1.14990883 4.02000647 0 0 Z " fill="#1A1A1A" transform="translate(26,87)"/>
<path d="M0 0 C0.66 0 1.32 0 2 0 C3.32229189 2.64458379 3.09677194 4.67761301 3.0625 7.625 C3.05347656 8.62789062 3.04445313 9.63078125 3.03515625 10.6640625 C3.02355469 11.43492188 3.01195312 12.20578125 3 13 C2.34 13 1.68 13 1 13 C1 13.66 1 14.32 1 15 C0.01 15.33 -0.98 15.66 -2 16 C-2.05423638 14.08364783 -2.09289963 12.16685075 -2.125 10.25 C-2.14820313 9.18265625 -2.17140625 8.1153125 -2.1953125 7.015625 C-2.00487687 4.07529894 -1.52670104 2.47638122 0 0 Z " fill="#202020" transform="translate(46,85)"/>
<path d="M0 0 C8.95859592 2.18222208 8.95859592 2.18222208 11.5625 6.1875 C12.036875 7.115625 12.51125 8.04375 13 9 C10 10 10 10 7.0625 8.875 C3.84886729 6.90746977 2.07955453 5.11933179 0 2 C0 1.34 0 0.68 0 0 Z " fill="#303030" transform="translate(118,152)"/>
<path d="M0 0 C6.6 0 13.2 0 20 0 C18.68 0.33 17.36 0.66 16 1 C16 1.66 16 2.32 16 3 C15.28972656 3.04898438 14.57945313 3.09796875 13.84765625 3.1484375 C12.46900391 3.26058594 12.46900391 3.26058594 11.0625 3.375 C10.14597656 3.44460937 9.22945312 3.51421875 8.28515625 3.5859375 C7.53105469 3.72257812 6.77695313 3.85921875 6 4 C5.67 4.66 5.34 5.32 5 6 C4.01 5.67 3.02 5.34 2 5 C1.34 3.35 0.68 1.7 0 0 Z " fill="#343434" transform="translate(72,33)"/>
<path d="M0 0 C-3.625 6.875 -3.625 6.875 -7 8 C-7 7.34 -7 6.68 -7 6 C-8.65 6 -10.3 6 -12 6 C-12 4.68 -12 3.36 -12 2 C-7.8794254 0.00214565 -4.54805635 -0.17835515 0 0 Z " fill="#242424" transform="translate(175,106)"/>
<path d="M0 0 C0.33 0.99 0.66 1.98 1 3 C-6.11389522 9.70387244 -6.11389522 9.70387244 -11 10 C-9.64908476 5.57882285 -7.8349855 3.556657 -4 1 C-1.6875 0.25 -1.6875 0.25 0 0 Z " fill="#1F1F1F" transform="translate(85,152)"/>
<path d="M0 0 C-0.19921875 1.8046875 -0.19921875 1.8046875 -1 4 C-3.14453125 5.6328125 -3.14453125 5.6328125 -5.8125 7.125 C-6.68519531 7.62257813 -7.55789062 8.12015625 -8.45703125 8.6328125 C-10.62064904 9.79604787 -12.79386248 10.92007254 -15 12 C-14.87109375 9.73828125 -14.87109375 9.73828125 -14 7 C-11.34765625 4.98046875 -11.34765625 4.98046875 -8.0625 3.1875 C-6.44021484 2.28064453 -6.44021484 2.28064453 -4.78515625 1.35546875 C-2 0 -2 0 0 0 Z " fill="#383838" transform="translate(131,77)"/>
<path d="M0 0 C0.33 0.99 0.66 1.98 1 3 C-0.45287661 4.33927721 -1.91247259 5.67126847 -3.375 7 C-4.59316406 8.11375 -4.59316406 8.11375 -5.8359375 9.25 C-8 11 -8 11 -10 11 C-10 10.34 -10 9.68 -10 9 C-10.99 8.34 -11.98 7.68 -13 7 C-11.20856793 6.0204042 -9.41684696 5.0413367 -7.625 4.0625 C-6.62726563 3.51722656 -5.62953125 2.97195312 -4.6015625 2.41015625 C-3.07929654 1.5850241 -1.54871217 0.77435609 0 0 Z " fill="#363636" transform="translate(145,124)"/>
<path d="M0 0 C0.66 0 1.32 0 2 0 C2.0825 0.61875 2.165 1.2375 2.25 1.875 C2.79638017 4.11177675 2.79638017 4.11177675 4.6875 5.09375 C7.42571141 6.16683285 9.82025344 6.41573239 12.75 6.625 C13.73484375 6.69976562 14.7196875 6.77453125 15.734375 6.8515625 C16.48203125 6.90054688 17.2296875 6.94953125 18 7 C18 7.33 18 7.66 18 8 C15.04142591 8.05379226 12.08382279 8.09357093 9.125 8.125 C7.86236328 8.15013672 7.86236328 8.15013672 6.57421875 8.17578125 C5.76855469 8.18222656 4.96289062 8.18867187 4.1328125 8.1953125 C3.38918457 8.20578613 2.64555664 8.21625977 1.87939453 8.22705078 C0 8 0 8 -2 6 C-1.44444444 1.44444444 -1.44444444 1.44444444 0 0 Z " fill="#3D3D3D" transform="translate(74,110)"/>
<path d="M0 0 C0.99 0.33 1.98 0.66 3 1 C4.16796875 3.36328125 4.16796875 3.36328125 5.1875 6.3125 C5.53167969 7.27800781 5.87585938 8.24351563 6.23046875 9.23828125 C7 12 7 12 7 16 C6.34 16 5.68 16 5 16 C4.01 13.36 3.02 10.72 2 8 C1.01 8.495 1.01 8.495 0 9 C-1.125 2.25 -1.125 2.25 0 0 Z " fill="#474747" transform="translate(111,61)"/>
<path d="M0 0 C2.375 0.6875 2.375 0.6875 3.375 1.6875 C3.75 4.9375 3.75 4.9375 3.375 8.6875 C0.875 11.625 0.875 11.625 -1.625 13.6875 C-2.285 13.0275 -2.945 12.3675 -3.625 11.6875 C-3.150625 11.336875 -2.67625 10.98625 -2.1875 10.625 C0.05373825 7.84586457 0.04617658 5.1730283 0.375 1.6875 C-1.605 1.6875 -3.585 1.6875 -5.625 1.6875 C-2.625 -0.3125 -2.625 -0.3125 0 0 Z " fill="#474747" transform="translate(95.625,75.3125)"/>
<path d="M0 0 C0.33 0 0.66 0 1 0 C1.33 2.64 1.66 5.28 2 8 C2.66 8 3.32 8 4 8 C4.33 7.34 4.66 6.68 5 6 C4.52258065 10.53548387 4.52258065 10.53548387 2.3125 12.5 C-1.14313741 13.24716485 -3.05076928 11.74272725 -6 10 C-4 8 -4 8 -1 6 C-0.26656572 2.93443402 -0.26656572 2.93443402 0 0 Z " fill="#353535" transform="translate(43,92)"/>
<path d="M0 0 C0.66 1.32 1.32 2.64 2 4 C-0.40435006 5.20217503 -1.68381369 5.03897118 -4.3515625 4.87890625 C-5.20234375 4.83056641 -6.053125 4.78222656 -6.9296875 4.73242188 C-7.81914063 4.67634766 -8.70859375 4.62027344 -9.625 4.5625 C-10.5221875 4.51029297 -11.419375 4.45808594 -12.34375 4.40429688 C-14.56279383 4.2744592 -16.7814404 4.1378646 -19 4 C-19 9.28 -19 14.56 -19 20 C-19.33 20 -19.66 20 -20 20 C-20 14.39 -20 8.78 -20 3 C-13.4 3 -6.8 3 0 3 C0 2.01 0 1.02 0 0 Z " fill="#515151" transform="translate(130,113)"/>
<path d="M0 0 C0.33 0.99 0.66 1.98 1 3 C1.97582031 2.97679687 2.95164062 2.95359375 3.95703125 2.9296875 C5.22933594 2.91164062 6.50164062 2.89359375 7.8125 2.875 C9.07707031 2.85179687 10.34164062 2.82859375 11.64453125 2.8046875 C15 3 15 3 18 5 C11.4 5 4.8 5 -2 5 C-1 1 -1 1 0 0 Z " fill="#101010" transform="translate(75,54)"/>
<path d="M0 0 C-0.3125 1.875 -0.3125 1.875 -1 4 C-3.90092502 5.93395001 -4.89674737 6.30131941 -8.1875 6.625 C-9.445625 6.74875 -10.70375 6.8725 -12 7 C-12 6.34 -12 5.68 -12 5 C-11.34 5 -10.68 5 -10 5 C-9.67 4.34 -9.34 3.68 -9 3 C-6.43432625 -0.51092198 -4.16481719 -0.27765448 0 0 Z " fill="#181818" transform="translate(136,132)"/>
<path d="M0 0 C-0.33 1.32 -0.66 2.64 -1 4 C-2.875 4.625 -2.875 4.625 -5 5 C-5.66 4.34 -6.32 3.68 -7 3 C-7.825 3.165 -8.65 3.33 -9.5 3.5 C-10.325 3.665 -11.15 3.83 -12 4 C-12.66 3.34 -13.32 2.68 -14 2 C-9.07262981 0.02905192 -5.21979128 -0.1799928 0 0 Z " fill="#3C3C3C" transform="translate(170,123)"/>
<path d="M0 0 C2 2 2 2 2.25 5 C2 8 2 8 0 10 C-0.99 10 -1.98 10 -3 10 C-2.25 3.375 -2.25 3.375 0 0 Z " fill="#050505" transform="translate(55,98)"/>
<path d="M0 0 C0.33 0 0.66 0 1 0 C1.05410687 1.77049689 1.09284119 3.54146849 1.125 5.3125 C1.14820313 6.29863281 1.17140625 7.28476563 1.1953125 8.30078125 C1 11 1 11 -1 14 C-2.32 12.35 -3.64 10.7 -5 9 C-4.34 7.68 -3.68 6.36 -3 5 C-2.34 5.66 -1.68 6.32 -1 7 C-0.67 4.69 -0.34 2.38 0 0 Z " fill="#2C2C2C" transform="translate(41,76)"/>
<path d="M0 0 C-1.22025063 3.6607519 -2.126491 3.92339441 -5.4375 5.6875 C-6.64212891 6.34298828 -6.64212891 6.34298828 -7.87109375 7.01171875 C-10 8 -10 8 -12 8 C-12 7.01 -12 6.02 -12 5 C-10.56705502 4.15885829 -9.12845595 3.32734313 -7.6875 2.5 C-6.88699219 2.0359375 -6.08648437 1.571875 -5.26171875 1.09375 C-3 0 -3 0 0 0 Z " fill="#282828" transform="translate(85,65)"/>
<path d="M0 0 C1.65 0.33 3.3 0.66 5 1 C5.33 1.99 5.66 2.98 6 4 C5.401875 4.103125 4.80375 4.20625 4.1875 4.3125 C1.71756736 5.08876455 0.67748765 6.07088921 -1 8 C-1.66 7.67 -2.32 7.34 -3 7 C-1.125 2.25 -1.125 2.25 0 0 Z " fill="#1F1F1F" transform="translate(99,0)"/>
<path d="M0 0 C-0.33 0.99 -0.66 1.98 -1 3 C-1.66 3 -2.32 3 -3 3 C-3.33 4.32 -3.66 5.64 -4 7 C-6.31 7.33 -8.62 7.66 -11 8 C-9.83630874 4.50892621 -9.11026462 4.14777237 -6.0625 2.3125 C-5.35222656 1.87550781 -4.64195313 1.43851562 -3.91015625 0.98828125 C-2 0 -2 0 0 0 Z " fill="#2C2C2C" transform="translate(97,97)"/>
<path d="M0 0 C0.33 0.66 0.66 1.32 1 2 C1.66 2.33 2.32 2.66 3 3 C1.99088542 4.72526042 0.98177083 6.45052083 -0.02734375 8.17578125 C-1.13901247 10.13819555 -1.13901247 10.13819555 -2 13 C-3.25 10.4375 -3.25 10.4375 -4 7 C-2.97381014 4.34989114 -1.61515439 2.37522704 0 0 Z " fill="#3B3A3B" transform="translate(125,96)"/>
<path d="M0 0 C2.0625 0.4375 2.0625 0.4375 4 1 C4 1.66 4 2.32 4 3 C3.01 3.33 2.02 3.66 1 4 C0.19787372 5.87387216 0.19787372 5.87387216 -0.1875 8.0625 C-0.34605469 8.79597656 -0.50460938 9.52945313 -0.66796875 10.28515625 C-0.77753906 10.85105469 -0.88710937 11.41695312 -1 12 C-1.33 11.34 -1.66 10.68 -2 10 C-2.66 9.67 -3.32 9.34 -4 9 C-3.52418802 7.68628013 -3.04424851 6.37405454 -2.5625 5.0625 C-2.29566406 4.33160156 -2.02882813 3.60070313 -1.75390625 2.84765625 C-1 1 -1 1 0 0 Z " fill="#494949" transform="translate(122,56)"/>
<path d="M0 0 C3.87729472 0.57441403 6.21519058 2.29254639 9 5 C9 6.32 9 7.64 9 9 C8.01 8.67 7.02 8.34 6 8 C6 7.34 6 6.68 6 6 C5.38125 5.7525 4.7625 5.505 4.125 5.25 C1.64931313 3.79371361 1.04874998 2.62187494 0 0 Z " fill="#404040" transform="translate(56,124)"/>
<path d="M0 0 C0.33 0 0.66 0 1 0 C1.1953125 2.05078125 1.390625 4.1015625 1.5859375 6.15234375 C1.72257813 6.76207031 1.85921875 7.37179688 2 8 C2.66 8.33 3.32 8.66 4 9 C4.33 8.01 4.66 7.02 5 6 C5.33 6.99 5.66 7.98 6 9 C4.35 10.65 2.7 12.3 1 14 C-0.04976964 10.85069107 -0.10131595 8.61185544 -0.0625 5.3125 C-0.05347656 4.31863281 -0.04445312 3.32476562 -0.03515625 2.30078125 C-0.02355469 1.54152344 -0.01195312 0.78226562 0 0 Z " fill="#343434" transform="translate(162,76)"/>
<path d="M0 0 C0.66 0 1.32 0 2 0 C2.33 4.29 2.66 8.58 3 13 C2.01 12.67 1.02 12.34 0 12 C0 8.04 0 4.08 0 0 Z " fill="#2A2A2A" transform="translate(102,72)"/>
<path d="M0 0 C0.99 0.33 1.98 0.66 3 1 C3.33 1.99 3.66 2.98 4 4 C3.67 4.66 3.34 5.32 3 6 C2.34 6 1.68 6 1 6 C0.67 8.64 0.34 11.28 0 14 C-0.33 14 -0.66 14 -1 14 C-1.02694851 12.04174127 -1.04637218 10.08337774 -1.0625 8.125 C-1.07410156 7.03445312 -1.08570313 5.94390625 -1.09765625 4.8203125 C-1 2 -1 2 0 0 Z " fill="#3F3F3F" transform="translate(35,66)"/>
<path d="M0 0 C0.33 0 0.66 0 1 0 C2.42857143 8.42857143 2.42857143 8.42857143 0 13 C-0.99 12.67 -1.98 12.34 -3 12 C-3.6875 9.9375 -3.6875 9.9375 -4 8 C-3.01 7.67 -2.02 7.34 -1 7 C-0.67 4.69 -0.34 2.38 0 0 Z " fill="#5C5C5C" transform="translate(153,108)"/>
<path d="M0 0 C0 0.66 0 1.32 0 2 C-0.99 2.33 -1.98 2.66 -3 3 C-3.33 3.66 -3.66 4.32 -4 5 C-6.97 4.505 -6.97 4.505 -10 4 C-6.66064924 0.50886057 -4.84725717 -0.1275594 0 0 Z " fill="#1F1F1F" transform="translate(68,149)"/>
<path d="M0 0 C0.33 0 0.66 0 1 0 C1 4.95 1 9.9 1 15 C-2 12 -2 12 -2.1875 9.3125 C-2.125625 8.549375 -2.06375 7.78625 -2 7 C-1.34 7 -0.68 7 0 7 C0 4.69 0 2.38 0 0 Z " fill="#222222" transform="translate(110,67)"/>
<path d="M0 0 C3.29148243 1.13499394 3.9959869 1.99283376 5.75 5.125 C6.1625 6.07375 6.575 7.0225 7 8 C6.01 8.33 5.02 8.66 4 9 C1.49701566 6.06171403 0.53069061 3.82097239 0 0 Z " fill="#2A2A2A" transform="translate(123,105)"/>
<path d="M0 0 C-0.25 1.875 -0.25 1.875 -1 4 C-3.58152302 5.72101535 -4.84918025 6 -8 6 C-6.98565881 3.46414701 -6.34981128 2.21863205 -4 0.75 C-2 0 -2 0 0 0 Z " fill="#2A2A2A" transform="translate(131,77)"/>
<path d="M0 0 C1 3 1 3 0.22265625 4.82421875 C-0.8515625 6.54947917 -1.92578125 8.27473958 -3 10 C-4.125 8.25 -4.125 8.25 -5 6 C-3.92886167 2.68920881 -2.98673647 1.99115765 0 0 Z " fill="#2A2A2A" transform="translate(80,47)"/>
<path d="M0 0 C0.66 0 1.32 0 2 0 C2 0.99 2 1.98 2 3 C2.66 3.33 3.32 3.66 4 4 C3.01 4.33 2.02 4.66 1 5 C0.67 5.66 0.34 6.32 0 7 C-1.32 6.67 -2.64 6.34 -4 6 C-2.7260411 3.96166576 -1.38938077 1.96147874 0 0 Z " fill="#121212" transform="translate(156,113)"/>
<path d="M0 0 C0.66 0.66 1.32 1.32 2 2 C1.01 4.31 0.02 6.62 -1 9 C-1.66 7.68 -2.32 6.36 -3 5 C-2.67 4.67 -2.34 4.34 -2 4 C-2.99 3.34 -3.98 2.68 -5 2 C-3.35 1.34 -1.7 0.68 0 0 Z " fill="#3D3D3D" transform="translate(176,86)"/>
<path d="M0 0 C0.33 0.99 0.66 1.98 1 3 C-0.65 4.32 -2.3 5.64 -4 7 C-4.99 6.01 -5.98 5.02 -7 4 C-4.69 2.68 -2.38 1.36 0 0 Z " fill="#4A4A4A" transform="translate(145,124)"/>
<path d="M0 0 C0.33 0.66 0.66 1.32 1 2 C0.01 2.495 0.01 2.495 -1 3 C-1.65213292 5.02463255 -1.65213292 5.02463255 -2 7 C-3.32 7 -4.64 7 -6 7 C-5.8125 4.625 -5.8125 4.625 -5 2 C-2.4375 0.6875 -2.4375 0.6875 0 0 Z " fill="#161616" transform="translate(155,127)"/>
<path d="M0 0 C0.66 0 1.32 0 2 0 C2.66 1.98 3.32 3.96 4 6 C2.68 6.33 1.36 6.66 0 7 C-0.38133299 5.0085944 -0.71325582 3.00720923 -1 1 C-0.67 0.67 -0.34 0.34 0 0 Z " fill="#373737" transform="translate(156,85)"/>
<path d="M0 0 C0.66 0 1.32 0 2 0 C2 1.32 2 2.64 2 4 C2.66 4 3.32 4 4 4 C3.34 5.32 2.68 6.64 2 8 C1.01 8 0.02 8 -1 8 C-0.67 5.36 -0.34 2.72 0 0 Z " fill="#2F2F2F" transform="translate(90,84)"/>
<path d="M0 0 C0.33 1.32 0.66 2.64 1 4 C-1.31 4 -3.62 4 -6 4 C-6 3.01 -6 2.02 -6 1 C-4.02 0.67 -2.04 0.34 0 0 Z " fill="#1F1F1F" transform="translate(104,172)"/>
<path d="M0 0 C2.3125 0.1875 2.3125 0.1875 5 1 C6.8125 3.5625 6.8125 3.5625 8 6 C6.35 5.67 4.7 5.34 3 5 C3 4.34 3 3.68 3 3 C2.01 2.67 1.02 2.34 0 2 C0 1.34 0 0.68 0 0 Z " fill="#252525" transform="translate(122,154)"/>
<path d="M0 0 C0.33 0.99 0.66 1.98 1 3 C-0.98 3.99 -2.96 4.98 -5 6 C-5 5.34 -5 4.68 -5 4 C-5.66 3.67 -6.32 3.34 -7 3 C-2.25 0 -2.25 0 0 0 Z " fill="#3C3C3C" transform="translate(90,61)"/>
<path d="M0 0 C0.33 0.99 0.66 1.98 1 3 C0.2575 3.144375 -0.485 3.28875 -1.25 3.4375 C-3.52027739 3.90187492 -5.75759479 4.41863569 -8 5 C-5.47211993 2.20127563 -3.79588866 0.54226981 0 0 Z " fill="#363636" transform="translate(85,152)"/>
<path d="M0 0 C0.99 0.66 1.98 1.32 3 2 C3 2.66 3 3.32 3 4 C-4.42857143 4.28571429 -4.42857143 4.28571429 -8 2 C-5.36 2 -2.72 2 0 2 C0 1.34 0 0.68 0 0 Z " fill="#353535" transform="translate(55,131)"/>
<path d="M0 0 C5.75 0.75 5.75 0.75 8 3 C6.02 3.66 4.04 4.32 2 5 C1.34 3.35 0.68 1.7 0 0 Z " fill="#272727" transform="translate(63,129)"/>
<path d="M0 0 C0.66 0.33 1.32 0.66 2 1 C1.34 2.65 0.68 4.3 0 6 C-0.99 6 -1.98 6 -3 6 C-3 4.35 -3 2.7 -3 1 C-2.01 0.67 -1.02 0.34 0 0 Z " fill="#3C3C3C" transform="translate(54,114)"/>
<path d="M0 0 C1.65 0.33 3.3 0.66 5 1 C3.515 3.475 3.515 3.475 2 6 C1.01 5.67 0.02 5.34 -1 5 C-0.67 3.35 -0.34 1.7 0 0 Z " fill="#0D0D0D" transform="translate(44,125)"/>
<path d="M0 0 C0.6875 1.8125 0.6875 1.8125 1 4 C-0.375 5.75 -0.375 5.75 -2 7 C-2.33 7 -2.66 7 -3 7 C-3.1875 4.625 -3.1875 4.625 -3 2 C-2.01 1.34 -1.02 0.68 0 0 Z " fill="#050505" transform="translate(47,94)"/>
<path d="M0 0 C0.99 0.33 1.98 0.66 3 1 C3 3.31 3 5.62 3 8 C2.34 8 1.68 8 1 8 C0.67 5.36 0.34 2.72 0 0 Z " fill="#353535" transform="translate(75,83)"/>
<path d="M0 0 C0.99 0.495 0.99 0.495 2 1 C2 1.99 2 2.98 2 4 C3.65 4.33 5.3 4.66 7 5 C5.02 5.99 5.02 5.99 3 7 C0 3.375 0 3.375 0 0 Z " fill="#3C3C3C" transform="translate(156,98)"/>
<path d="M0 0 C2 2 2 2 2 5 C1.01 5 0.02 5 -1 5 C-1 5.66 -1 6.32 -1 7 C-1.66 7 -2.32 7 -3 7 C-1.125 1.125 -1.125 1.125 0 0 Z " fill="#393939" transform="translate(55,98)"/>
<path d="M0 0 C0.99 0.33 1.98 0.66 3 1 C1.02 3.97 1.02 3.97 -1 7 C-1.66 6.67 -2.32 6.34 -3 6 C-2 4 -1 2 0 0 Z " fill="#474747" transform="translate(85,89)"/>
<path d="M0 0 C0.33 0.66 0.66 1.32 1 2 C0.34 2 -0.32 2 -1 2 C-1.66 3.32 -2.32 4.64 -3 6 C-4.32 5.34 -5.64 4.68 -7 4 C-4.69 2.68 -2.38 1.36 0 0 Z " fill="#2C2C2C" transform="translate(114,86)"/>
<path d="M0 0 C2.475 0.495 2.475 0.495 5 1 C4.67 2.65 4.34 4.3 4 6 C2.62437146 4.71034824 1.29233607 3.37310707 0 2 C0 1.34 0 0.68 0 0 Z " fill="#4A4A4A" transform="translate(118,152)"/>
<path d="M0 0 C2.02045442 0.60183749 4.02111039 1.27306096 6 2 C6.33 2.66 6.66 3.32 7 4 C4.69 3.67 2.38 3.34 0 3 C0 2.01 0 1.02 0 0 Z " fill="#2F2F2F" transform="translate(138,148)"/>
<path d="" fill="#A4A4A4" transform="translate(0,0)"/>
</svg>
